Coordinates
version=1
nRows=13
nColumns=22
inDegrees=yes

Units are S.I. units (second, meters, Newtons, ...)
If the header above contains a line with 'inDegrees', this indicates whether rotational values are in degrees (yes) or radians (no).

endheader
time	pelvis_tilt	pelvis_list	pelvis_rotation	pelvis_tx	pelvis_ty	pelvis_tz	hip_flexion_r	hip_adduction_r	hip_rotation_r	knee_angle_r	ankle_angle_r	subtalar_angle_r	hip_flexion_l	hip_adduction_l	hip_rotation_l	knee_angle_l	ankle_angle_l	subtalar_angle_l	lumbar_extension	lumbar_bending	lumbar_rotation
      4.23000000	      1.05494666	      4.43637855	   -183.95629204	     -0.17191442	      0.88018316	     -0.33319465	     32.97046704	     -1.40441934	      3.00729254	    -53.45058929	      5.73967246	      9.40528882	      2.05013113	     -5.04054607	      4.48082242	    -23.42899665	     22.26031930	     -2.14807904	     -5.61742811	      5.96347363	      3.91122315
      4.24000000	      0.83908158	      4.38830648	   -183.74625212	     -0.18041838	      0.87916337	     -0.33356893	     33.19863041	     -1.73171899	      3.24981041	    -50.58840441	      5.50934411	      8.94499502	      1.11402875	     -4.96194056	      4.58760950	    -23.22714564	     22.70193436	     -2.31372783	     -5.78114985	      6.02631040	      3.61112520
      4.25000000	      0.66898965	      4.29722949	   -183.50393395	     -0.18898348	      0.87795387	     -0.33390108	     33.34425820	     -2.13606227	      3.44536490	    -47.50469823	      5.14841233	      8.50142496	      0.24751211	     -4.84352102	      4.72357280	    -23.05538491	     23.13219474	     -2.44327175	     -5.88880835	      6.05555037	      3.27395330
      4.26000000	      0.53177706	      4.15876745	   -183.24792673	     -0.19763769	      0.87656576	     -0.33423702	     33.39008655	     -2.59799672	      3.61757094	    -44.21453749	      4.72898893	      8.07965677	     -0.57359628	     -4.68229913	      4.87769478	    -22.90723307	     23.54100556	     -2.55605517	     -5.95443762	      6.04008253	      2.94116635
      4.27000000	      0.43586877	      3.97909807	   -182.95986717	     -0.20640494	      0.87497577	     -0.33456045	     33.34985091	     -3.11719744	      3.73195246	    -40.75509941	      4.27029531	      7.82212848	     -1.33646687	     -4.48763716	      5.06467778	    -22.78835249	     23.94278409	     -2.61949596	     -5.96283427	      5.98873128	      2.58131091
      4.28000000	      0.36955172	      3.74558841	   -182.67755240	     -0.21532534	      0.87320172	     -0.33496595	     33.23750725	     -3.67093018	      3.82043058	    -37.18806612	      3.75624373	      7.59723121	     -2.08357482	     -4.25234476	      5.22499553	    -22.65812489	     24.32636224	     -2.67803979	     -5.92598258	      5.87789197	      2.21723989
      4.29000000	      0.34062741	      3.46692048	   -182.38497131	     -0.22435508	      0.87121599	     -0.33543274	     33.07596818	     -4.24658520	      3.88498174	    -33.56540165	      3.24528885	      7.49639510	     -2.78230511	     -3.98344049	      5.39975544	    -22.55598600	     24.70785414	     -2.71028937	     -5.84064045	      5.71773290	      1.86535413
      4.30000000	      0.34246623	      3.15348066	   -182.08124944	     -0.23350312	      0.86903363	     -0.33599911	     32.88100213	     -4.82860926	      3.91419875	    -29.95697279	      2.75564015	      7.58877380	     -3.44212221	     -3.69722783	      5.58359746	    -22.48243538	     25.08351305	     -2.70779803	     -5.71577513	      5.51364682	      1.51730333
      4.31000000	      0.37575054	      2.80305499	   -181.77646693	     -0.24276312	      0.86665887	     -0.33666633	     32.68030364	     -5.40886273	      3.94043381	    -26.43472396	      2.30714219	      7.99021264	     -4.06815711	     -3.39186060	      5.75064752	    -22.42705660	     25.46204143	     -2.66004814	     -5.55297865	      5.26805588	      1.16296343
      4.32000000	      0.45924933	      2.43892854	   -181.43367320	     -0.25210834	      0.86409176	     -0.33738844	     32.49927653	     -5.98516256	      3.90450786	    -23.05143516	      1.94820216	      8.51232561	     -4.60940488	     -3.09500785	      5.93400318	    -22.43762683	     25.79139507	     -2.56442430	     -5.33239657	      5.01050684	      0.76331158
      4.33000000	      0.56581671	      2.02716170	   -181.12184426	     -0.26149531	      0.86136302	     -0.33826862	     32.35635600	     -6.55145618	      3.91659314	    -19.88628681	      1.67278372	      9.45546682	     -5.11757506	     -2.76145568	      6.09373386	    -22.49040644	     26.16502126	     -2.40262658	     -5.10019992	      4.68919428	      0.44436235
      4.34000000	      0.70703194	      1.61178601	   -180.79138096	     -0.27097275	      0.85853131	     -0.33923827	     32.24484545	     -7.09591499	      3.85931909	    -16.96796819	      1.50529504	     10.37259015	     -5.57829286	     -2.44572333	      6.25156369	    -22.57770111	     26.47491685	     -2.21519702	     -4.83108653	      4.36682907	      0.08260820
      4.35000000	      0.86728431	      1.18374833	   -180.47977695	     -0.28053519	      0.85564393	     -0.34035369	     32.17009328	     -7.60785885	      3.75122564	    -14.35177854	      1.43699389	     11.34015845	     -6.01993478	     -2.13152810	      6.39462966	    -22.68964305	     26.73960574	     -1.99594857	     -4.55007741	      4.02610638	     -0.23517115
